<!-- Generator: Adobe Illustrator 21.0.0, SVG Export Plug-In  -->
<svg version="1.1"
	 xmlns="http://www.w3.org/2000/svg" xmlns:xlink="http://www.w3.org/1999/xlink" xmlns:a="http://ns.adobe.com/AdobeSVGViewerExtensions/3.0/"
	 x="0px" y="0px" width="552px" height="552px" viewBox="0 0 552 552" style="enable-background:new 0 0 552 552;"
	 xml:space="preserve">
<style type="text/css">
	.st0{fill:none;stroke:#000000;stroke-width:16;stroke-miterlimit:10;}
</style>
<defs>
</defs>
<g>
	<circle class="st0" cx="276" cy="276" r="268"/>
	<path d="M208,414c-11.7-3.5-22.4-7.9-32.5-13.8c-1-0.6-1.6-2.7-1.6-4.1c-0.1-16.9-0.1-33.8-0.1-50.7c0-7-4.1-11.8-10.4-12.3
		c-5.6-0.4-10.8,3.3-11.8,8.9c-0.5,2.9-0.5,5.8-0.5,8.8c-0.1,10.3,0,20.6,0,31.8c-2.1-2.1-3.7-3.6-5.1-5.2
		c-11.5-13.1-17.7-28.1-17.6-45.8c0.2-38.8-0.1-77.7,0.2-116.5c0.3-34.5,19.6-61.7,51.7-74.2c18.8-7.3,38.5-10.3,58.5-11.4
		c27.4-1.6,54.9-2.2,82.2,2.2c16,2.6,31.9,6.2,46.2,14.2c4.8,2.7,9.5,6.2,13.3,10.2c13.8,15,12.5,36.2-2.5,49.9
		c-7.9,7.2-17.4,11.5-27.4,14.7c-21.5,6.9-43.8,9.4-66.3,9.9c-20.7,0.5-41.3-0.7-61.5-5.6c-9-2.2-17.9-5.1-25.7-10.2
		c-5.8-3.8-10.5-8.4-11.5-15.6c-1.1-8.1,2.6-14.1,8.8-18.7c8.6-6.4,18.6-9.5,28.8-11.8c21.3-4.9,42.9-6.2,64.7-6.1
		c6.5,0,11.6,5.3,11.5,11.3c0,6.2-5.2,10.9-12,11.4c-16.5,1.1-33,2.1-49.4,3.8c-6.8,0.7-13.5,3.1-20.2,4.8c-1.9,0.5-3.6,1.5-6.4,2.7
		c3.3,1.4,5.7,2.7,8.2,3.5c15.9,5.3,32.3,7.2,48.9,7.6c24,0.6,47.9-0.9,71.1-7.7c6.6-1.9,12.8-5.2,19-8.1c1.9-0.9,3.5-2.4,4.9-3.9
		c5.3-5.3,5.3-12.1-0.5-16.9c-4-3.3-8.6-6.2-13.4-8.2c-13.9-6.1-28.8-8.6-43.7-10c-33.5-3.1-66.8-2.3-99.8,4.2
		c-11.1,2.2-21.7,6-31.4,12.1c-14.4,9-21.5,22.5-22.6,38.8c-0.7,10.7,4.5,19.4,13,26c6.9,5.3,14.7,8.7,23,11.2
		c18.6,5.6,37.7,7.5,56.9,8.6c41.1,2.2,81.9,0.4,122-9.3c13.9-3.4,27.4-8.1,41-12.7c8.5-2.9,16.3,2.1,16.3,11.2
		c0,48.7,0,97.4,0,146.1c0,5.7-2.4,9.7-7.8,11.7c-4.7,1.8-9.4,3.4-14.7,5.3c-0.1-1.7-0.2-2.9-0.2-4.2c0-12.7,0-25.3,0-38
		c0-3.9-0.8-7.5-3.8-10.2c-3.6-3.2-7.7-4-12.1-2.1c-4.4,1.9-6.8,5.4-6.8,10.2c-0.1,10.6,0,21.1,0,31.7c0,5.4,0.1,10.8-0.1,16.2
		c0,1.1-1,2.9-2,3.2c-10.4,2.3-20.8,4.4-31.8,6.7c0-1.8,0-3.1,0-4.3c0-13.7-0.1-27.5-0.2-41.2c-0.1-9.8-9.4-15.5-17.3-10.7
		c-3.2,1.9-5.3,4.8-5.4,8.6c-0.2,11.3-0.2,22.5-0.3,33.8c0,4.6,0.1,9.2-0.1,13.7c0,1-1.3,2.6-2.1,2.7c-10.3,0.7-20.4,1.1-30.7,1.6
		c-0.2,0-0.9-0.2-0.9-0.5c0-1.1,0-2.3,0-3.6c0-23.6-0.2-47.2-0.2-70.8c0-1.9,0-3.8-0.4-5.6c-1.3-5.6-6.5-9.1-12.1-8.6
		c-5.8,0.6-10.1,5.1-10.2,11.1c-0.1,13.6-0.1,27.2-0.1,40.8c0,12.2,0,24.4,0,37.2c-5.1-0.4-10-0.6-14.8-1.1
		c-5.1-0.6-10.2-1.5-15.4-2c-3-0.3-4.1-1.4-4-4.6c0.2-14.1,0.1-28.2,0.1-42.2c0-1.5-0.1-3.1-0.2-4.6c-0.6-6.6-5.3-10.9-11.6-10.7
		c-6.2,0.2-10.9,4.9-11,11.4c-0.2,10.7-0.1,21.4-0.1,32C208,405.8,208,409.7,208,414z"/>
</g>
</svg>
