<?xml version="1.0" encoding="utf-8"?>
<!-- Generator: Adobe Illustrator 19.2.1, SVG Export Plug-In . SVG Version: 6.00 Build 0)  -->
<svg version="1.1" id="Слой_1" xmlns="http://www.w3.org/2000/svg" xmlns:xlink="http://www.w3.org/1999/xlink" x="0px" y="0px"
	 viewBox="0 0 50 50" style="enable-background:new 0 0 50 50;" xml:space="preserve">
<style type="text/css">
	.st0{fill:#1B181C;}
</style>
<g>
	<path class="st0" d="M18.3,15.8h-2.8c-1.1,0-1.6,0.2-1.6,1.1v1c0,0.9,0.5,1.1,1.6,1.1h0.6c0.4,0,0.6,0.2,0.6,0.8v13.1
		c0,1.1,0.2,1.6,1.1,1.6h1c0.9,0,1.1-0.5,1.1-1.6V16.9C19.9,16,19.3,15.8,18.3,15.8"/>
	<path class="st0" d="M37.2,6.8C36,5.6,34.5,5,32.7,5H19.3c-1.8,0-3.3,0.6-4.4,1.8l-7.1,7.1C6.6,15,6,16.4,6,18.1v13.6
		c0,1.9,0.6,3.3,1.9,4.6l6.7,6.7c1.3,1.3,2.8,1.9,4.7,1.9h13.3c1.8,0,3.4-0.5,4.7-1.9l6.7-6.7c1.2-1.2,1.9-2.7,1.9-4.6V18.1
		c0-1.6-0.6-3.1-1.7-4.2L37.2,6.8 M43.4,22.7c0,0.5-0.2,0.7-0.6,0.7h-2V22c0-1.1-0.2-1.6-1.1-1.6h-0.9c-0.9,0-1.1,0.5-1.1,1.6v1.4
		h-1.4c-1.1,0-1.6,0.2-1.6,1.1v1c0,0.9,0.5,1.1,1.6,1.1h1.4v1.4c0,1.1,0.2,1.6,1.1,1.6h0.9c0.9,0,1.1-0.5,1.1-1.6v-1.4h2
		c0.4,0,0.6,0.2,0.6,0.6v4.6c0,1.1-0.3,2-1.1,2.7l-6.7,6.7c-0.8,0.8-1.7,1.1-2.8,1.1H19.3c-1.1,0-2-0.4-2.8-1.1l-6.7-6.7
		c-0.8-0.8-1.2-1.6-1.1-2.7V18.4c0-1.1,0.4-2.1,1.2-2.9l6.9-7c0.7-0.7,1.6-0.9,2.6-0.9h13.5c1,0,1.9,0.2,2.6,0.9l6.9,7
		c0.8,0.8,1.2,1.8,1.2,2.9V22.7z"/>
	<path class="st0" d="M31.4,24.8c1.7-1.2,1.7-2.5,1.7-3.5v-1c-0.2-3.4-1.3-4.7-5.3-4.7c-4,0-5.1,1.3-5.3,4.7v1c0,1,0,2.3,1.7,3.5
		c-2,0.8-2.2,2.5-2.2,4.8c0,3.4,1.2,5,5.7,5.1c4.6-0.1,5.7-1.8,5.7-5.1C33.6,27.3,33.5,25.6,31.4,24.8 M27.9,18.3
		c1.7,0,2.3,0.6,2.3,2.6c0,2-0.7,2.6-2.3,2.6c-1.7,0-2.3-0.7-2.3-2.6C25.5,18.9,26.2,18.3,27.9,18.3z M27.9,31.8
		c-1.9,0-2.6-0.8-2.6-2.7c0-1.9,0.7-2.8,2.6-2.8c1.9,0,2.6,0.9,2.6,2.8C30.5,31.1,29.8,31.8,27.9,31.8z"/>
</g>
</svg>
