<!-- Generator: Adobe Illustrator 21.0.0, SVG Export Plug-In  -->
<svg version="1.1"
	 xmlns="http://www.w3.org/2000/svg" xmlns:xlink="http://www.w3.org/1999/xlink" xmlns:a="http://ns.adobe.com/AdobeSVGViewerExtensions/3.0/"
	 x="0px" y="0px" width="552px" height="552px" viewBox="0 0 552 552" style="enable-background:new 0 0 552 552;"
	 xml:space="preserve">
<style type="text/css">
	.st0{fill:none;stroke:#000000;stroke-width:16;stroke-miterlimit:10;}
</style>
<defs>
</defs>
<g>
	<circle class="st0" cx="276" cy="276" r="268"/>
	<g>
		<path d="M292.8,246c-9.1,0-17.4,0-26.2,0c0,56.9,0,113.6,0,170.7c-17.8,0-35.1,0-53,0c0-56.8,0-113.6,0-170.6
			c-8.9,0-17.3,0-26.1,0c0,56.8,0,113.5,0,170.6c-17.8,0-35.1,0-53.2,0c0-1.7,0-3.4,0-5.1c0-64.1,0-128.1,0.1-192.2
			c0-3.1-1-4.9-3.5-7c-5.9-4.9-11.4-10.4-16.7-16c-2-2.1-3.3-5-4.3-7.8c-2.3-6-0.3-8.8,6.2-8.8c8.8,0,17.7,0,26.5,0c1.5,0,3,0,4.4,0
			c1.2-2.8,0.5-4.3-1.7-6.1c-5.9-5-11.6-10.2-17-15.7c-2-2-3.3-4.6-4.5-7.2c-2.9-6-2.6-10.5,6.4-10.5c99.6,0.2,199.1,0.2,298.7,0
			c9.1,0,9.3,4.7,6.4,10.5c-4.8,9.7-12.5,16.6-21.1,22.8c-1.5,1.1-2.3,3.2-3.4,4.9c0.3,0.4,0.7,0.8,1,1.2c5.7,0,11.3,0,17,0
			c5,0,10.1-0.1,15.1,0c5.3,0.1,7.1,2.6,5.7,7.7c-2.2,7.5-7.4,12.8-12.8,18.1c-1.9,1.9-3.9,4-6.2,5.2c-5.2,2.6-5.9,6.6-5.9,11.9
			c0.2,63,0.1,125.9,0.1,188.9c0,1.6,0,3.2,0,5.1c-17.8,0-35.1,0-52.9,0c0-56.9,0-113.6,0-170.6c-8.8,0-17.2,0-26.1,0
			c0,56.8,0,113.5,0,170.6c-17.8,0-35.1,0-53,0C292.8,359.9,292.8,303.2,292.8,246z"/>
	</g>
</g>
</svg>
