<!-- Generator: Adobe Illustrator 21.0.0, SVG Export Plug-In  -->
<svg version="1.1"
	 xmlns="http://www.w3.org/2000/svg" xmlns:xlink="http://www.w3.org/1999/xlink" xmlns:a="http://ns.adobe.com/AdobeSVGViewerExtensions/3.0/"
	 x="0px" y="0px" width="552px" height="552px" viewBox="0 0 552 552" style="enable-background:new 0 0 552 552;"
	 xml:space="preserve">
<style type="text/css">
	.st0{fill:none;stroke:#000000;stroke-width:16;stroke-miterlimit:10;}
</style>
<defs>
</defs>
<g>
	<circle class="st0" cx="276" cy="276" r="268"/>
	<g>
		<path d="M217.7,263.5c25.2,0.8,49.5,4.6,71.6,17.1c7.5,4.2,14.6,9.9,20.2,16.4c11.5,13.3,10.7,29.1-0.9,42.5
			c-10.7,12.4-24.8,19.4-40.2,24c-38.1,11.3-76,10.9-113-4.2c-9.6-3.9-19-10.1-26.6-17.2c-16.6-15.4-15.6-35.7,1.2-50.9
			c15.7-14.2,34.9-20.7,55.2-24.2C196,265.1,206.9,264.6,217.7,263.5z"/>
		<path d="M337.4,238.3c-26.4-1.2-51.8-5.3-74.7-19.1c-6.7-4-13-9.5-17.9-15.6c-10.6-13-9.7-28.4,1.2-41.2
			c11.2-13.1,26.1-20.3,42.2-24.9c37.8-10.7,75.2-9.8,112,4.7c10.3,4.1,19.6,10,27.4,18.2c14,14.9,13.6,33.8-1.1,48.2
			c-14.3,14-32.2,20.9-51.2,24.7C362.8,235.8,350,236.7,337.4,238.3z"/>
		<path d="M117.2,340.3c8.2,16.7,21.9,26.1,37.9,32.2c43.5,16.7,87,16.5,129.9-2.4c16.4-7.2,23.4-14.7,31.5-29.9
			c4.4,10.6,0.9,29.3-7.3,38.9c-10.9,12.8-25.4,20-41.1,24.6c-37.9,11.1-75.7,10.7-112.5-4.3c-9.5-3.9-18.2-10.2-26.3-16.7
			c-8.8-7.2-12.8-17.3-12.1-28.9C117.4,349.3,117.2,344.7,117.2,340.3z"/>
		<path d="M117.2,380.4c8.2,16.6,21.9,26.1,37.8,32.2c43.9,16.9,87.8,16.5,130.9-2.8c13.4-6,24.7-15.1,30.7-29.5
			c1.2,13.7,2.7,27.3-7.5,38.9c-11,12.5-25,19.8-40.6,24.4c-38.1,11.3-76,10.9-113-4.1c-9.2-3.7-17.7-9.7-25.5-15.9
			c-9.2-7.3-13.7-17.6-13-29.7C117.4,389.4,117.2,384.9,117.2,380.4z"/>
		<path d="M238.3,206.4c12.7,25.8,36.6,34.8,62.1,40.4c32.5,7.1,64.8,5.5,96.1-6.4c17.3-6.5,32.5-15.9,40.2-34.4
			c3.3,23,1,35.3-18.4,49.6c-16.2,12-35.1,17.3-54.6,20.1c-18.8,2.7-37.6,2.6-56.4-0.7c-1.8-0.3-3.6-1-5.2-2
			c-12-7.6-24.9-13.4-38.7-16.3c-13.2-2.8-20.7-11.7-24.2-23.3c-2.5-8.4-1.8-17.8-2.5-26.7C237.3,206.5,237.8,206.5,238.3,206.4z"/>
		<path d="M323.2,290.2c18.1,1.6,36.6,0.3,54.9-4c13.8-3.2,27-8.1,38.7-16.2c8.8-6,15.8-13.5,20-24.4c2.9,22.9,1.3,34.4-15.8,48
			c-17.2,13.7-37.7,19.5-59.1,22.3c-10,1.3-20.1,1.4-29.3,1.9C329.3,308.1,326.4,299.4,323.2,290.2z"/>
		<path d="M331.4,357.4c0-9.2,0-17.5,0-25.6c11.8-1,23.4-1.7,34.8-3.2c14.6-1.9,28.6-6.1,41.7-13.1c12.5-6.6,23.2-15.2,28.8-29.6
			c3.3,24.1,1.2,37.3-21.8,52.1C389.8,354.2,361.3,358.1,331.4,357.4z"/>
		<path d="M331.4,397.5c0-9,0-17.3,0-25.9c8.5-0.5,17-0.9,25.5-1.6c17.8-1.6,34.9-5.9,50.8-14.2c12.7-6.6,23.5-15.2,29.3-30.3
			c2.8,25.7,1.1,39.1-25.1,54.7C387.4,394.6,360.2,398.3,331.4,397.5z"/>
	</g>
</g>
</svg>
