<!-- Generator: Adobe Illustrator 21.0.0, SVG Export Plug-In  -->
<svg version="1.1"
	 xmlns="http://www.w3.org/2000/svg" xmlns:xlink="http://www.w3.org/1999/xlink" xmlns:a="http://ns.adobe.com/AdobeSVGViewerExtensions/3.0/"
	 x="0px" y="0px" width="552px" height="552px" viewBox="0 0 552 552" style="enable-background:new 0 0 552 552;"
	 xml:space="preserve">
<style type="text/css">
	.st0{fill:none;stroke:#000000;stroke-width:16;stroke-miterlimit:10;}
</style>
<defs>
</defs>
<g>
	<circle class="st0" cx="276" cy="276" r="268"/>
	<g>
		<path d="M202.1,168.5c7.5-15.8,10-32,5.9-49.4c-2.2-0.2-4.6,0.3-6.1-0.7c-2.4-1.6-6-4.5-5.7-6.4c0.3-2.6,3.7-4.9,6-7
			c0.7-0.6,2.4-0.1,3.6-0.1c48.6,0,97.2,0,145.7,0c1.2,0,2.9-0.5,3.6,0.1c2.3,1.9,5.4,4,6,6.5c1,3.8-1.8,7-5.9,6.9
			c-5.1-0.1-5.9,2.3-6.5,6.6c-2.6,18.6,2.4,35.3,12.1,51c10,16.3,20.3,32.4,29.1,49.3c13,25,15.6,52.1,13.1,79.8
			c-4.5,49.3-21.4,94.2-47.9,135.7c-4.6,7.1-9.6,10.2-18.4,10.1c-39.7-0.5-79.4-0.3-119.2-0.1c-5.3,0-8.9-1.6-11.8-6
			c-32.3-48.7-51.2-101.8-51.6-160.7c-0.2-27.4,8.6-52.5,22.2-76"/>
	</g>
</g>
</svg>
