<!-- Generator: Adobe Illustrator 21.0.0, SVG Export Plug-In  -->
<svg version="1.1"
	 xmlns="http://www.w3.org/2000/svg" xmlns:xlink="http://www.w3.org/1999/xlink" xmlns:a="http://ns.adobe.com/AdobeSVGViewerExtensions/3.0/"
	 x="0px" y="0px" width="626.9px" height="626.9px" viewBox="0 0 626.9 626.9" style="enable-background:new 0 0 626.9 626.9;"
	 xml:space="preserve">
<style type="text/css">
	.st0{fill:none;stroke:#000000;stroke-width:16;stroke-miterlimit:10;}
	.st1{fill:none;stroke:#000000;stroke-miterlimit:10;}
</style>
<defs>
</defs>
<g>
	<circle class="st0" cx="313.1" cy="313.4" r="268"/>
	<rect x="0.5" y="0.5" class="st1" width="625.9" height="625.9"/>
	<path d="M310.1,462.4c-84.9,0.1-154.6-69.5-154.6-154.4c0-85.7,69.1-155.5,154-155.6c86.3-0.1,156,69.1,156,154.7
		C465.4,393.1,396.1,462.3,310.1,462.4z M318.9,437.5c54-0.8,121.9-48.5,122.5-129.8c0.5-75.8-61.5-128.5-122.9-130.8
		c18.6,7.9,27.9,23,34.9,39.6c14.5,34.3,18.2,70.4,16.1,107.2c-1.5,26.3-6,51.9-16.9,76.1C345.4,415.8,336.4,430.1,318.9,437.5z"/>
</g>
</svg>
