<!-- Generator: Adobe Illustrator 21.0.0, SVG Export Plug-In  -->
<svg version="1.1"
	 xmlns="http://www.w3.org/2000/svg" xmlns:xlink="http://www.w3.org/1999/xlink" xmlns:a="http://ns.adobe.com/AdobeSVGViewerExtensions/3.0/"
	 x="0px" y="0px" width="552px" height="552px" viewBox="0 0 552 552" style="enable-background:new 0 0 552 552;"
	 xml:space="preserve">
<style type="text/css">
	.st0{fill:none;stroke:#000000;stroke-width:16;stroke-miterlimit:10;}
</style>
<defs>
</defs>
<g>
	<circle class="st0" cx="276" cy="276" r="268"/>
	<path d="M155.1,416.9c20.8,0,40.8,0.3,60.7-0.2c6.3-0.2,13-1.5,18.6-4.1c36.8-17.4,70-40.8,102.3-65.4
		c26.5-20.1,52.2-41.1,74.7-65.7c8.2-8.9,15.2-18.9,21.9-28.9c8.9-13.3,2.3-41.4-18.2-45.9c-2.1-0.5-4.2-0.6-7.2-1.1
		c0,5.1,0,9.6,0,14.1c0,12.2-0.9,24.4,0.3,36.5c1.2,12.2-4.6,19.5-14.6,26c0-24.8,0-48.9,0-74c-9.7,3.7-18.5,7.1-28.1,10.7
		c0,7.8,0,16.5,0,25.1c0,17.8-0.5,35.6,0.2,53.4c0.3,7.7-2.1,12.8-8.1,16.9c-1.8,1.2-3.3,2.7-6.3,5.2c0-3.4,0-5.6,0-7.8
		c0-29.5-0.1-59.1,0.1-88.6c0-4.1-1-6.3-5-8.4c-7.6-4-14.5-9.4-22.8-14.8c0,2.4,0,4.6,0,6.8c0,40.4-0.6,80.8,0.4,121.1
		c0.3,11.5-4.3,17.5-14.5,22.2c0-2.5,0-4.8,0-7c0-49.3-0.1-98.6,0.1-147.9c0-5.8-1.5-9.8-6.3-13c-6.8-4.5-13.3-9.5-21.4-15.3
		c-0.2,4.2-0.4,6.6-0.4,9c0,60.8,0,121.6,0,182.4c0,13.5,0,13.5-14,19.5c0-2.8,0-5.3,0-7.8c0-66.4,0-132.9,0-199.3
		c0-7.5-0.8-8.2-8.2-7.4c-1.9,0.2-3.9,0.6-5.8,1c-11.9,2.9-14.3,6-14.3,18.1c0,67.5,0,135.1-0.1,202.6c0,3.3,0.4,8.2-1.5,9.7
		c-4.4,3.5-9.9,7.2-15.3,7.7c-12.7,1.1-25.6,0.4-39.2,0.4c0-88.9,0-177.5,0-266c-11.6-3.3-14.4-7-14.5-18.9
		c-0.1-21.5,2.3-23.9,23.7-23.9c14.3,0,28.7,0,43,0c13.4,0,17.6,4.2,17.8,17.4c0,1.7,0,3.4,0,5.1c8.2,0.5,16,0.4,23.6,1.5
		c19.9,2.8,34.6,14.1,46.2,29.9c3.5,4.7,7,9.4,10.4,14.2c13.7,19,31.6,26.3,54.5,19.8c13.2-3.7,26.4-5.4,39.5,0
		c22.7,9.4,32.9,27.6,35.7,51c2.7,22.7-6.3,42-17.7,60.5c-21,34.2-48.2,63-77.5,89.9c-26.4,24.3-54.2,46.8-85.5,64.5
		c-13.5,7.6-27.5,11.8-43.3,11.2c-22.5-0.8-45.2-0.2-67.7-0.2c-11.2,0-16-4.4-16.3-15.5C154.9,434.8,155.1,426.4,155.1,416.9z"/>
</g>
</svg>
