<?xml version="1.0" encoding="utf-8"?>
<!-- Generator: Adobe Illustrator 19.2.1, SVG Export Plug-In . SVG Version: 6.00 Build 0)  -->
<svg version="1.1" id="Слой_1" xmlns="http://www.w3.org/2000/svg" xmlns:xlink="http://www.w3.org/1999/xlink" x="0px" y="0px"
	 viewBox="0 0 25 25" style="enable-background:new 0 0 25 25;" xml:space="preserve">
<style type="text/css">
	.st0{fill-rule:evenodd;clip-rule:evenodd;fill:#B3B3B3;}
</style>
<path class="st0" d="M18.8,25h3c1.8,0,3.2-1.4,3.2-3.2V3.2C25,1.4,23.6,0,21.8,0H3.2l0,0C1.4,0,0,1.4,0,3.2v18.6
	C0,23.6,1.4,25,3.2,25h8h2.2v-9.7h-3.3v-3.8h3.3V8.8c0-3.2,2-5,4.9-5c1.4,0,2.6,0.1,2.9,0.1v3.4l-2,0c-1.6,0-1.9,0.7-1.9,1.8v2.4H21
	l-0.5,3.8h-3.2V25H18.8z"/>
</svg>
