<?xml version="1.0" encoding="utf-8"?>
<!-- Generator: Adobe Illustrator 19.2.1, SVG Export Plug-In . SVG Version: 6.00 Build 0)  -->
<svg version="1.1" id="Слой_1" xmlns="http://www.w3.org/2000/svg" xmlns:xlink="http://www.w3.org/1999/xlink" x="0px" y="0px"
	 viewBox="0 0 25 25" style="enable-background:new 0 0 25 25;" xml:space="preserve">
<style type="text/css">
	.st0{fill-rule:evenodd;clip-rule:evenodd;fill:#B3B3B3;}
</style>
<g>
	<rect x="19.2" y="3.8" class="st0" width="1.9" height="1.8"/>
	<ellipse class="st0" cx="12.5" cy="12.4" rx="3.6" ry="3.4"/>
	<path class="st0" d="M21.8,0H3.2C1.4,0,0,1.4,0,3.2v18.6C0,23.6,1.4,25,3.2,25h18.6c1.8,0,3.2-1.4,3.2-3.2V3.2
		C25,1.4,23.5,0,21.8,0z M17.2,3.6c0-1,0.8-1.9,1.9-1.9h2.2c1,0,1.9,0.8,1.9,1.9v2.1c0,1-0.8,1.9-1.9,1.9h-2.2c-1,0-1.9-0.8-1.9-1.9
		V3.6z M12.5,7c3.1,0,5.6,2.4,5.6,5.4c0,3-2.5,5.4-5.6,5.4c-3.1,0-5.6-2.4-5.6-5.4C6.9,9.5,9.4,7,12.5,7z M23.1,21.1
		c0,1.1-0.9,2-2,2H3.7c-1.1,0-2-0.9-2-2V10.6c0-0.6,0.4-1,1-1c0.6,0,1,0.4,1,1v10.6l17.4,0l0-10.6c0-0.6,0.4-1,1-1c0.6,0,1,0.4,1,1
		V21.1z"/>
</g>
</svg>
