<?xml version="1.0" encoding="utf-8"?>
<!-- Generator: Adobe Illustrator 21.0.0, SVG Export Plug-In . SVG Version: 6.00 Build 0)  -->
<svg version="1.1" id="Слой_1" xmlns="http://www.w3.org/2000/svg" xmlns:xlink="http://www.w3.org/1999/xlink" x="0px" y="0px"
	 viewBox="0 0 231.2 101" style="enable-background:new 0 0 231.2 101;" xml:space="preserve">
<style type="text/css">
	.st0{fill:#1A171B;}
</style>
<g>
	<path class="st0" d="M16.7,91.2C14,87.6,0.6,69.1,0.6,59.9c0-10.5,8.5-19,19-19s19,8.5,19,19c0,9.2-13.4,27.7-16.1,31.3l-2.9,3.9
		L16.7,91.2z"/>
	<g>
		<path class="st0" d="M44.4,42.2h21v6.3h-6.9v17.6h-7.3V48.5h-6.8V42.2z"/>
		<path class="st0" d="M74.9,66.1h-7.2V42.2h7.2v8.5c0.4-0.6,1.1-1.3,2-1.8c1-0.6,2-0.9,3.1-0.9c3.8,0,5.8,2.6,5.8,6.9V66h-7.2v-9.6
			c0-1.5-0.8-2.1-1.8-2.1c-0.8,0-1.5,0.3-2,1L74.9,66.1L74.9,66.1z"/>
		<path class="st0" d="M90.8,64c-1.9-1.7-2.9-3.9-2.9-6.8c0-2.6,0.9-4.8,2.6-6.6c1.7-1.8,4-2.7,6.9-2.7c2.4,0,4.5,0.8,6.1,2.5
			c1.6,1.6,2.5,3.9,2.5,6.6v1.6H94.8c0.6,1.4,2.5,2.1,4.6,2.1s4-0.4,5.7-1.3v5.3c-1.6,1.1-4,1.7-7.3,1.7C95,66.5,92.7,65.7,90.8,64z
			 M99.3,55.4c0-1.6-1-2.6-2.3-2.6s-2.2,0.9-2.4,2.6H99.3z"/>
		<path class="st0" d="M115.2,66.1l9.8-24h7l9.9,24H134l-1.7-4.5h-7.8l-1.7,4.5H115.2z M126.6,56.1h3.5l-1.7-5.7L126.6,56.1z"/>
		<path class="st0" d="M147.3,65.5c-1.4-0.6-2.7-1.7-3.6-3.2c-1-1.5-1.5-3.2-1.5-5.1c0-2,0.5-3.7,1.5-5.1c2-2.9,5-4.1,8.3-4.1
			c1.9,0,3.7,0.3,5.2,1v5.9c-1.4-0.5-2.8-0.8-4-0.8c-2.2,0-4,1.1-4,3.1s1.8,3.2,4.1,3.2c1.5,0,2.8-0.3,4.1-0.9v5.8
			c-1.7,0.7-3.5,1.1-5.5,1.1C150.3,66.5,148.8,66.2,147.3,65.5z"/>
		<path class="st0" d="M164.5,65.5c-1.4-0.6-2.7-1.7-3.6-3.2c-1-1.5-1.5-3.2-1.5-5.1c0-2,0.5-3.7,1.5-5.1c2-2.9,5-4.1,8.3-4.1
			c1.9,0,3.7,0.3,5.2,1v5.9c-1.4-0.5-2.8-0.8-4-0.8c-2.2,0-4,1.1-4,3.1s1.8,3.2,4.1,3.2c1.5,0,2.8-0.3,4.1-0.9v5.8
			c-1.7,0.7-3.5,1.1-5.5,1.1C167.5,66.5,166,66.2,164.5,65.5z"/>
		<path class="st0" d="M179.4,64c-1.9-1.7-2.9-3.9-2.9-6.8c0-2.6,0.9-4.8,2.6-6.6c1.7-1.8,4-2.7,6.9-2.7c2.4,0,4.5,0.8,6.1,2.5
			c1.6,1.6,2.5,3.9,2.5,6.6v1.6h-11.2c0.6,1.4,2.5,2.1,4.6,2.1s4-0.4,5.7-1.3v5.3c-1.6,1.1-4,1.7-7.3,1.7
			C183.6,66.5,181.3,65.7,179.4,64z M187.9,55.4c0-1.6-1-2.6-2.2-2.6c-1.3,0-2.2,0.9-2.4,2.6H187.9z"/>
		<path class="st0" d="M196.7,65v-5.4c0.8,0.5,1.9,0.9,3.3,1.3c1.4,0.4,2.8,0.5,4.1,0.5c1,0,1.5-0.2,1.5-0.6c0-0.2-0.1-0.4-0.4-0.5
			c-0.2-0.1-0.8-0.3-1.6-0.5l-1.8-0.5c-1.9-0.6-3.2-1.4-4-2.1c-0.8-0.8-1.2-1.8-1.2-3.3c0-3.6,3.3-5.7,8.6-5.7
			c2.6,0,4.9,0.6,6.9,1.7V55c-0.9-0.5-1.9-1-3.2-1.3c-1.3-0.4-2.5-0.6-3.6-0.6c-0.8,0-1.2,0.2-1.2,0.6c0,0.2,0.2,0.4,0.7,0.6
			c0.2,0.1,0.5,0.2,0.7,0.2l2.1,0.6c3.8,1.2,5.2,2.5,5.2,5.5c0,3.4-3.1,5.8-8.8,5.8C200.9,66.5,198.5,66,196.7,65z"/>
		<path class="st0" d="M214.5,65v-5.4c0.8,0.5,1.9,0.9,3.3,1.3c1.4,0.4,2.8,0.5,4.1,0.5c1,0,1.5-0.2,1.5-0.6c0-0.2-0.1-0.4-0.4-0.5
			c-0.2-0.1-0.8-0.3-1.6-0.5l-1.8-0.5c-1.9-0.6-3.2-1.4-4-2.1c-0.8-0.8-1.2-1.8-1.2-3.3c0-3.6,3.3-5.7,8.6-5.7
			c2.6,0,4.9,0.6,6.9,1.7V55c-0.9-0.5-1.9-1-3.2-1.3c-1.3-0.4-2.5-0.6-3.6-0.6c-0.8,0-1.2,0.2-1.2,0.6c0,0.2,0.2,0.4,0.7,0.6
			c0.2,0.1,0.5,0.2,0.7,0.2l2.1,0.6c3.8,1.2,5.2,2.5,5.2,5.5c0,3.4-3.1,5.8-8.8,5.8C218.7,66.5,216.2,66,214.5,65z"/>
		<path class="st0" d="M56.4,70.9c2.7,0,4.9,0.7,6.5,2.2c1.7,1.5,2.5,3.3,2.5,5.6c0,2.3-0.8,4.1-2.5,5.6c-1.6,1.5-3.8,2.2-6.5,2.2
			h-3.6v8.3h-7.3V70.9H56.4z M55.4,81.1c1.5,0,2.5-0.9,2.5-2.1c0-1.3-1.1-2.1-2.5-2.1h-2.7v4.3h2.7V81.1z"/>
		<path class="st0" d="M68.6,92.5c-1.9-1.7-2.8-4-2.8-6.6s1-4.9,2.8-6.6c1.9-1.7,4.3-2.6,7.2-2.6s5.3,0.9,7.2,2.6
			c1.9,1.7,2.9,4,2.9,6.6s-1,4.9-2.9,6.6c-1.9,1.7-4.3,2.6-7.2,2.6S70.5,94.3,68.6,92.5z M78,88.2c0.6-0.6,0.9-1.4,0.9-2.3
			s-0.3-1.7-0.9-2.3c-1.1-1.2-3.2-1.2-4.4,0c-0.6,0.6-0.9,1.3-0.9,2.3c0,0.9,0.3,1.7,0.9,2.3C74.7,89.4,76.8,89.4,78,88.2z"/>
		<path class="st0" d="M89,75.1c-0.8-0.8-1.2-1.8-1.2-2.9c0-1.1,0.4-2,1.2-2.8c0.8-0.8,1.7-1.2,2.9-1.2s2,0.4,2.8,1.2
			c0.8,0.8,1.2,1.7,1.2,2.8c0,2.3-1.7,4.1-4,4.1C90.7,76.3,89.8,75.9,89,75.1z M88.3,94.7V77.1h7.2v17.6
			C95.5,94.7,88.3,94.7,88.3,94.7z"/>
		<path class="st0" d="M106.2,94.7H99V77.1h7.2v2.3c0.4-0.6,1.1-1.3,2-1.8c1-0.6,2-0.9,3.1-0.9c3.8,0,5.8,2.6,5.8,6.9v11.1h-7.2
			v-9.6c0-1.5-0.8-2.1-1.8-2.1c-0.8,0-1.5,0.3-2,1L106.2,94.7L106.2,94.7z"/>
		<path class="st0" d="M121.6,82.7h-2.8v-5.6h2.8v-4.2h7.2v4.2h4v5.6h-4v4.5c0,1.3,0.5,1.8,1.8,1.8c0.8,0,1.5-0.2,2.3-0.6V94
			c-1.2,0.7-2.8,1.1-4.7,1.1c-3.8,0-6.5-2-6.5-5.7v-6.7H121.6z"/>
	</g>
	<g>
		<path d="M1.2,14.3v-1.5c0.4,0.3,0.9,0.6,1.5,0.8c0.6,0.2,1.2,0.4,1.9,0.4c1.2,0,2.1-0.5,2.1-1.4c0-0.4-0.2-0.6-0.4-0.8
			c-0.1-0.1-0.3-0.2-0.5-0.3c-0.4-0.2-0.7-0.3-1.2-0.4L4.3,11c-0.5-0.1-0.9-0.3-1.2-0.4c-0.3-0.1-0.6-0.3-0.9-0.5
			c-0.7-0.4-0.9-1-0.9-1.8c0-1.5,1.3-2.5,3.3-2.5c1.1,0,2.1,0.2,2.9,0.8V8C6.6,7.5,5.6,7.2,4.6,7.2c-1.2,0-1.9,0.5-1.9,1.2
			c0,0.4,0.2,0.6,0.5,0.8c0.2,0.1,0.6,0.2,0.8,0.3l1,0.3c0.7,0.2,1.1,0.4,1.7,0.7c0.8,0.4,1.2,1.1,1.3,2.1c0,0.8-0.3,1.5-1,2
			c-0.7,0.5-1.5,0.7-2.5,0.7C3.2,15.3,2.1,15,1.2,14.3z"/>
		<path d="M14.4,8.7h1.4v6.4h-1.4v-0.8c-0.6,0.7-1.4,1-2.3,1c-1.5,0-2.4-1-2.4-2.7V8.7h1.4v3.6c0,1.2,0.7,1.7,1.5,1.7
			c0.7,0,1.4-0.5,1.8-1V8.7z"/>
		<path d="M17.8,15.1V8.7h1.4v0.8c0.5-0.7,1.2-1,2.1-1c1,0,1.7,0.5,2,1.1c0.5-0.7,1.3-1.1,2.3-1.1c1.4,0,2.3,0.9,2.3,2.6v4h-1.4
			v-3.7c0-1.1-0.4-1.6-1.3-1.6c-0.7,0-1.4,0.5-1.6,1.1v4.2h-1.4v-3.7c0-1.1-0.4-1.6-1.3-1.6c-0.7,0-1.3,0.4-1.7,1v4.2H17.8z"/>
		<path d="M29.8,15.1V8.7h1.4v0.8c0.5-0.7,1.2-1,2.1-1c1,0,1.7,0.5,2,1.1c0.5-0.7,1.3-1.1,2.3-1.1c1.4,0,2.3,0.9,2.3,2.6v4h-1.4
			v-3.7c0-1.1-0.4-1.6-1.3-1.6c-0.7,0-1.4,0.5-1.6,1.1v4.2h-1.4v-3.7c0-1.1-0.4-1.6-1.3-1.6c-0.7,0-1.3,0.4-1.7,1v4.2H29.8z"/>
		<path d="M42.2,9.5c0.6-0.6,1.4-1,2.4-1c0.6,0,1.2,0.2,1.7,0.5c0.9,0.7,1.4,1.7,1.4,2.9v0.4h-4.9c0.2,1.1,1.1,1.7,2.4,1.7
			c0.7,0,1.4-0.2,2.1-0.6v1.2c-0.6,0.4-1.4,0.6-2.4,0.6c-1,0-1.8-0.3-2.5-0.9c-0.7-0.6-1-1.4-1-2.4C41.3,11,41.6,10.2,42.2,9.5z
			 M46.2,11.3c0-0.4-0.2-0.7-0.5-1.1c-0.3-0.3-0.7-0.5-1.2-0.5c-1,0-1.7,0.7-1.8,1.5H46.2z"/>
		<path d="M49.2,15.1V8.7h1.4v1.1C51,9.1,52,8.6,53,8.6c0.1,0,0.1,0,0.1,0V10c-0.1,0-0.2,0-0.4,0c-1,0-1.8,0.6-2.1,1.2v3.9H49.2z"/>
		<path d="M57.9,15.1V6h6.5v1.3h-5v2.4h4V11h-4v4.1H57.9z"/>
		<path d="M65.7,9.5c0.6-0.6,1.4-1,2.4-1c0.6,0,1.2,0.2,1.7,0.5c0.9,0.7,1.4,1.7,1.4,2.9v0.4h-4.9c0.2,1.1,1.1,1.7,2.4,1.7
			c0.7,0,1.4-0.2,2.1-0.6v1.2c-0.6,0.4-1.4,0.6-2.4,0.6c-1,0-1.8-0.3-2.5-0.9c-0.7-0.6-1-1.4-1-2.4C64.8,11,65.1,10.2,65.7,9.5z
			 M69.6,11.3c0-0.4-0.2-0.7-0.5-1.1c-0.3-0.3-0.7-0.5-1.2-0.5c-1,0-1.7,0.7-1.8,1.5H69.6z"/>
		<path d="M72.3,14.6v-1.3c0.7,0.5,1.6,0.8,2.6,0.8c0.9,0,1.4-0.3,1.4-0.8c0-0.2-0.2-0.4-0.4-0.5c-0.1-0.1-0.4-0.1-0.6-0.2l-0.8-0.2
			c-1.5-0.4-2.1-0.9-2.1-2c0-1.2,1-1.9,2.7-1.9c1,0,1.8,0.2,2.4,0.6v1.3c-0.8-0.4-1.5-0.6-2.3-0.6c-0.9,0-1.3,0.3-1.3,0.7
			c0,0.2,0.2,0.4,0.4,0.5c0.1,0.1,0.4,0.1,0.6,0.2l0.7,0.2c1.5,0.3,2.2,1,2.2,2c0,1.2-1.1,1.9-2.8,1.9C73.8,15.3,72.8,15,72.3,14.6z
			"/>
		<path d="M80,10h-1.4V8.7H80V6.9h1.4v1.9h2V10h-2v3c0,0.7,0.3,1,1,1c0.4,0,0.7-0.1,1-0.2V15c-0.3,0.2-0.8,0.3-1.4,0.3
			c-1.2,0-2-0.7-2-1.9V10z"/>
		<path d="M84.9,6.7c0-0.5,0.4-0.9,0.9-0.9c0.5,0,0.9,0.4,0.9,0.9s-0.4,0.9-0.9,0.9C85.3,7.6,84.9,7.2,84.9,6.7z M85.1,15.1V8.7h1.4
			v6.4H85.1z"/>
		<path d="M90.7,15.2l-2.9-6.4h1.5l2,4.6l2-4.6h1.5L92,15.2H90.7z"/>
		<path d="M102.4,13.9V15c-0.2,0.1-0.5,0.2-0.8,0.2c-0.7,0-1.2-0.3-1.3-0.9c-0.6,0.7-1.4,1-2.4,1c-0.7,0-1.3-0.2-1.7-0.6
			s-0.7-0.9-0.7-1.6c0-0.7,0.2-1.2,0.7-1.6c0.5-0.4,1.1-0.6,1.8-0.6c0.8,0,1.5,0.2,2,0.5v-0.4c0-0.9-0.6-1.4-1.9-1.4
			c-0.7,0-1.4,0.2-2,0.6V9.1c0.6-0.4,1.4-0.5,2.3-0.5c1.8,0,3,0.9,3,2.4v2.4c0,0.4,0.2,0.6,0.5,0.6C102.1,14,102.3,14,102.4,13.9z
			 M100.1,12.5c-0.5-0.3-1.1-0.5-1.7-0.5c-0.9,0-1.5,0.4-1.5,1c0,0.7,0.6,1,1.4,1c0.7,0,1.4-0.3,1.8-0.8V12.5z"/>
		<path d="M103.8,13.6V6h1.4v7.2c0,0.5,0.2,0.8,0.7,0.8c0.2,0,0.4,0,0.5-0.1v1.2c-0.3,0.1-0.6,0.2-1,0.2
			C104.4,15.3,103.8,14.8,103.8,13.6z"/>
		<path d="M2.1,27.3c-0.7-0.7-1-1.4-1-2.4c0-0.9,0.3-1.7,1-2.4s1.5-1,2.5-1c1,0,1.8,0.3,2.5,1c0.7,0.7,1,1.4,1,2.4
			c0,0.9-0.3,1.7-1,2.4c-0.7,0.6-1.5,1-2.5,1C3.6,28.3,2.8,28,2.1,27.3z M6.2,26.4c0.4-0.4,0.6-0.9,0.6-1.5c0-0.6-0.2-1.1-0.6-1.5
			c-0.4-0.4-0.9-0.6-1.5-0.6S3.6,23,3.1,23.4c-0.4,0.4-0.6,0.9-0.6,1.5c0,0.6,0.2,1.1,0.6,1.5C3.6,26.8,4,27,4.7,27
			C5.3,27,5.7,26.8,6.2,26.4z"/>
		<path d="M11.6,28.1h-1.4V23H9v-1.2h1.2v-0.8c0-1.2,0.7-2,2-2c0.6,0,1.1,0.1,1.5,0.3v1.2c-0.4-0.2-0.8-0.2-1.1-0.2
			c-0.7,0-1,0.4-1,1v0.6h2.1V23h-2.1V28.1z"/>
		<path d="M17.7,28.1l4-9.2H23l4,9.2h-1.5l-1-2.3h-4.3l-1,2.3H17.7z M20.7,24.6H24l-1.7-3.8L20.7,24.6z"/>
		<path d="M28.3,28.1v-6.4h1.4v1.1c0.4-0.7,1.4-1.3,2.4-1.3c0.1,0,0.1,0,0.1,0V23c-0.1,0-0.2,0-0.4,0c-1,0-1.8,0.6-2.1,1.2v3.9H28.3
			z"/>
		<path d="M34.5,23h-1.4v-1.2h1.4v-1.9h1.4v1.9h2V23h-2v3c0,0.7,0.3,1,1,1c0.4,0,0.7-0.1,1-0.2V28c-0.3,0.2-0.8,0.3-1.4,0.3
			c-1.2,0-2-0.7-2-1.9V23z"/>
		<path d="M39.1,27.6v-1.3c0.7,0.5,1.6,0.8,2.6,0.8c0.9,0,1.4-0.3,1.4-0.8c0-0.2-0.2-0.4-0.4-0.5c-0.1-0.1-0.4-0.1-0.6-0.2l-0.8-0.2
			c-1.5-0.4-2.1-0.9-2.1-2c0-1.2,1-1.9,2.7-1.9c1,0,1.8,0.2,2.4,0.6v1.3c-0.8-0.4-1.5-0.6-2.3-0.6c-0.9,0-1.3,0.3-1.3,0.7
			c0,0.2,0.2,0.4,0.4,0.5c0.1,0.1,0.4,0.1,0.6,0.2l0.7,0.2c1.5,0.3,2.2,1,2.2,2c0,1.2-1.1,1.9-2.8,1.9C40.7,28.3,39.7,28,39.1,27.6z
			"/>
	</g>
</g>
</svg>
