<?xml version="1.0" encoding="utf-8"?>
<!-- Generator: Adobe Illustrator 21.0.0, SVG Export Plug-In . SVG Version: 6.00 Build 0)  -->
<svg version="1.1" id="Слой_1" xmlns="http://www.w3.org/2000/svg" xmlns:xlink="http://www.w3.org/1999/xlink" x="0px" y="0px"
	 viewBox="0 0 185.9 102.4" style="enable-background:new 0 0 185.9 102.4;" xml:space="preserve">
<style type="text/css">
	.st0{fill:#1A171B;}
</style>
<g>
	<g>
		<path class="st0" d="M-0.7,15.8c0.1,0,0.3,0.1,0.5,0.1c0.7,0,1.1-0.4,1.4-1.3c0.3-0.9,0.4-2,0.4-3.8V7.4h6.6v9.8H6.6V8.8H3.1v2.1
			c0,2.2-0.2,3.6-0.7,4.7s-1.3,1.6-2.5,1.6c-0.3,0-0.5,0-0.6-0.1C-0.7,17.1-0.7,15.8-0.7,15.8z"/>
		<path class="st0" d="M11,11.2c0.7-0.7,1.5-1,2.6-1c0.7,0,1.3,0.2,1.8,0.6c1,0.7,1.5,1.9,1.5,3.1v0.4h-5.3c0.2,1.2,1.2,1.9,2.6,1.9
			c0.8,0,1.5-0.2,2.2-0.6v1.3c-0.6,0.3-1.5,0.5-2.6,0.5s-2-0.3-2.7-1c-0.7-0.7-1.1-1.5-1.1-2.6C10,12.8,10.4,11.9,11,11.2z
			 M15.3,13.1c0-0.4-0.2-0.8-0.5-1.1s-0.7-0.6-1.3-0.6c-1.1,0-1.8,0.7-1.9,1.6L15.3,13.1L15.3,13.1z"/>
		<path class="st0" d="M20,17.2v-5.6h-2.3v-1.3h6.1v1.3h-2.3v5.6H20z"/>
		<path class="st0" d="M25.2,17.2v-6.9h1.5V13h3.5v-2.7h1.6v6.9h-1.5v-2.8h-3.5v2.9L25.2,17.2L25.2,17.2z"/>
		<path class="st0" d="M34,17.2v-6.9h1.5V15l3.7-4.7h1.4v6.9h-1.5v-4.7l-3.7,4.7H34z"/>
		<path class="st0" d="M42.8,17.2v-6.9h1.5V15l3.7-4.7h1.4v6.9h-1.5v-4.7l-3.7,4.7H42.8z M43.7,7.1H45c0,0.7,0.5,1.2,1.1,1.2
			c0.7,0,1.1-0.5,1.2-1.2h1.3c0,1.4-1,2.3-2.4,2.3C44.7,9.4,43.7,8.5,43.7,7.1z"/>
		<path class="st0" d="M58.7,20v-2.6c-1.2,0-2.2-0.4-2.9-1c-0.7-0.7-1-1.5-1-2.5c0-2,1.4-3.4,3.9-3.6V7.4h1.5v2.8
			c2.5,0.1,3.9,1.5,3.9,3.6c0,1-0.4,1.9-1,2.5c-0.7,0.7-1.7,1-2.9,1V20H58.7z M58.7,11.5c-1.4,0-2.4,0.9-2.4,2.3s1,2.3,2.4,2.3V11.5
			z M60.3,16.1c1.4,0,2.4-0.9,2.4-2.3s-1-2.3-2.4-2.3V16.1z"/>
		<path class="st0" d="M66.3,11.2c0.7-0.7,1.5-1,2.6-1c0.7,0,1.3,0.2,1.8,0.6c1,0.7,1.5,1.9,1.5,3.1v0.4h-5.3
			c0.2,1.2,1.2,1.9,2.6,1.9c0.8,0,1.5-0.2,2.2-0.6v1.3c-0.6,0.4-1.5,0.7-2.6,0.7s-2-0.3-2.7-1c-0.7-0.7-1.1-1.5-1.1-2.6
			C65.4,12.8,65.7,11.9,66.3,11.2z M70.7,13.1c0-0.4-0.2-0.8-0.5-1.1s-0.8-0.6-1.4-0.6c-1.1,0-1.8,0.7-1.9,1.6L70.7,13.1L70.7,13.1z
			"/>
		<path class="st0" d="M74.5,16.4c-0.7-0.7-1.1-1.6-1.1-2.6c0-1.1,0.4-1.9,1.1-2.6s1.6-1,2.7-1c0.8,0,1.5,0.2,2.1,0.5V12
			c-0.6-0.3-1.2-0.4-1.9-0.4c-0.7,0-1.3,0.2-1.7,0.6c-0.5,0.4-0.7,1-0.7,1.6c0,0.7,0.2,1.2,0.7,1.7c0.5,0.4,1.1,0.6,1.7,0.6
			c0.7,0,1.4-0.2,2-0.5v1.3c-0.7,0.4-1.4,0.6-2.2,0.6C76.1,17.4,75.2,17.1,74.5,16.4z"/>
		<path class="st0" d="M82.8,17.2v-5.6h-2.3v-1.3h6.2v1.3h-2.3v5.6H82.8z"/>
		<path class="st0" d="M88,17.2v-6.9h1.5V15l3.7-4.7h1.4v6.9h-1.5v-4.7l-3.7,4.7H88z"/>
		<path class="st0" d="M96.9,17.2v-6.9h3.8c1.4,0,2.2,0.7,2.2,1.8c0,0.7-0.4,1.2-0.9,1.5c0.9,0.3,1.4,0.9,1.4,1.8
			c0,1.2-0.9,1.9-2.4,1.9h-4.1V17.2z M98.4,13.1h1.9c0.7,0,1-0.3,1-0.8s-0.4-0.8-1-0.8h-1.9V13.1z M98.4,16h2.2
			c0.7,0,1.1-0.3,1.1-0.8s-0.4-0.9-1.1-0.9h-2.2V16z"/>
		<path class="st0" d="M112,16v1.2c-0.2,0.2-0.5,0.2-0.9,0.2c-0.8,0-1.3-0.3-1.5-1c-0.6,0.7-1.5,1.1-2.6,1.1c-0.7,0-1.4-0.2-1.9-0.6
			s-0.7-1-0.7-1.7s0.3-1.3,0.8-1.7c0.5-0.4,1.2-0.6,2-0.6s1.6,0.2,2.2,0.5V13c0-1-0.7-1.5-2-1.5c-0.8,0-1.5,0.2-2.2,0.6v-1.3
			c0.7-0.4,1.5-0.6,2.5-0.6c1.9,0,3.2,1,3.2,2.6v2.6c0,0.4,0.2,0.7,0.6,0.7C111.7,16.1,111.8,16,112,16z M109.5,14.4
			c-0.6-0.3-1.2-0.5-1.8-0.5c-1,0-1.6,0.4-1.6,1.1s0.6,1.1,1.5,1.1c0.8,0,1.5-0.4,2-0.8L109.5,14.4L109.5,14.4z"/>
		<path class="st0" d="M115.9,11.7v1c0,1-0.1,1.7-0.3,2.6c-0.3,1.2-1,2-2.4,2c-0.2,0-0.3,0-0.5-0.1v-1.3c0.1,0,0.2,0,0.3,0
			c1,0,1.4-1,1.4-3.4v-2.2h5.6v6.9h-1.5v-5.6L115.9,11.7L115.9,11.7z"/>
		<path class="st0" d="M122.2,17.2v-6.9h1.5v2.1h2c1.7,0,2.8,0.9,2.8,2.4c0,0.7-0.2,1.3-0.7,1.7c-0.5,0.4-1.1,0.7-2,0.7
			C125.8,17.2,122.2,17.2,122.2,17.2z M123.7,16h1.8c0.9,0,1.4-0.4,1.4-1.1s-0.5-1.1-1.4-1.1h-1.8V16z"/>
		<path class="st0" d="M0.2,30.8v-6.9h1.6v4.7l3.7-4.7h1.4v6.9H5.4v-4.7l-3.7,4.7H0.2z"/>
		<path class="st0" d="M9.7,29.9c-0.7-0.7-1.1-1.6-1.1-2.6c0-1.1,0.4-1.9,1.1-2.6c0.7-0.7,1.6-1,2.7-1c0.8,0,1.5,0.2,2.1,0.5v1.3
			c-0.6-0.3-1.2-0.4-1.9-0.4s-1.3,0.2-1.7,0.6c-0.5,0.4-0.7,1-0.7,1.6c0,0.7,0.2,1.2,0.7,1.7c0.5,0.4,1.1,0.6,1.7,0.6
			c0.7,0,1.4-0.2,2-0.5v1.3c-0.7,0.4-1.4,0.6-2.2,0.6C11.3,30.9,10.4,30.6,9.7,29.9z"/>
		<path class="st0" d="M16.4,30.8v-6.9h1.5v2.6l2.7-2.6h1.9L19.2,27l3.8,3.8h-2.1l-3.1-3.1v3.1H16.4z"/>
		<path class="st0" d="M23.8,33.4v-1.3c0.3,0.2,0.6,0.2,1,0.2c0.8,0,1.3-0.6,1.8-1.8l-3-6.6h1.7l2.1,4.9l2-4.9H31l-3.3,7.6
			c-0.6,1.4-1.5,2.1-2.6,2.1C24.5,33.6,24.1,33.6,23.8,33.4z"/>
		<path class="st0" d="M32.8,29.9c-0.7-0.7-1.1-1.6-1.1-2.6c0-1.1,0.4-1.9,1.1-2.6s1.6-1,2.7-1c0.8,0,1.5,0.2,2.1,0.5v1.3
			c-0.6-0.3-1.2-0.4-1.9-0.4c-0.7,0-1.3,0.2-1.7,0.6c-0.5,0.4-0.7,1-0.7,1.6c0,0.7,0.2,1.2,0.7,1.7c0.5,0.4,1.1,0.6,1.7,0.6
			c0.7,0,1.4-0.2,2-0.5v1.3C37,30.8,36.3,31,35.5,31C34.4,30.9,33.5,30.6,32.8,29.9z"/>
		<path class="st0" d="M39.9,29.9c-0.7-0.7-1.1-1.6-1.1-2.6c0-1.1,0.4-1.9,1.1-2.6s1.6-1,2.7-1c0.8,0,1.5,0.2,2.1,0.5v1.3
			c-0.6-0.3-1.2-0.4-1.9-0.4c-0.7,0-1.3,0.2-1.7,0.6c-0.5,0.4-0.7,1-0.7,1.6c0,0.7,0.2,1.2,0.7,1.7c0.5,0.4,1.1,0.6,1.7,0.6
			c0.7,0,1.4-0.2,2-0.5v1.3c-0.7,0.4-1.4,0.6-2.2,0.6C41.6,30.9,40.7,30.6,39.9,29.9z"/>
		<path class="st0" d="M48.2,30.8v-5.6h-2.3v-1.3h6.2v1.3h-2.3v5.6H48.2z"/>
		<path class="st0" d="M53.5,30.8v-6.9h3.8c1.4,0,2.2,0.7,2.2,1.8c0,0.7-0.4,1.2-0.9,1.5c0.9,0.3,1.4,0.9,1.4,1.8
			c0,1.2-0.9,1.9-2.4,1.9h-4.1V30.8z M55,26.6h1.9c0.7,0,1-0.3,1-0.8s-0.4-0.8-1-0.8H55V26.6z M55,29.5h2.2c0.7,0,1.1-0.3,1.1-0.8
			s-0.4-0.9-1.1-0.9H55V29.5z"/>
	</g>
	<g>
		<path class="st0" d="M45.8,43.9h20.4v4.5h-7.7v19.8h-5V48.3h-7.7V43.9z"/>
		<path class="st0" d="M66.6,53c1.8-1.8,4.1-2.6,6.9-2.6s5.1,0.9,6.9,2.6c1.8,1.8,2.7,3.9,2.7,6.5c0,2.6-0.9,4.8-2.7,6.5
			c-1.8,1.7-4.1,2.6-6.9,2.6s-5.1-0.9-6.9-2.6c-1.8-1.8-2.7-3.9-2.7-6.5C63.9,56.9,64.8,54.8,66.6,53z M73.6,64.3
			c1.4,0,2.5-0.5,3.4-1.4c0.9-0.9,1.4-2.1,1.4-3.5c0-1.4-0.5-2.5-1.4-3.4c-0.9-0.9-2.1-1.4-3.4-1.4c-1.4,0-2.5,0.5-3.4,1.4
			c-0.9,0.9-1.4,2-1.4,3.4c0,1.4,0.5,2.5,1.4,3.5S72.2,64.3,73.6,64.3z"/>
		<path class="st0" d="M96.2,68.1v-5.7c-1.1,0.4-2.4,0.6-3.8,0.6c-4.9,0-7.4-2.4-7.4-7.1v-5.1h4.9v4.6c0,2.5,0.9,3.4,3.3,3.4
			c1.2,0,2.2-0.2,3-0.7v-7.3h4.9v17.3H96.2z"/>
		<path class="st0" d="M104.3,68.1V50.8h4.9v6.3l6-6.3h6l-7.6,7.8l8.7,9.5H116l-6.9-7.5v7.5H104.3z"/>
		<path class="st0" d="M141.4,64.2v3.6c-0.6,0.5-1.5,0.7-2.6,0.7c-2,0-3.3-0.7-3.9-2.2c-1.5,1.6-3.5,2.4-6,2.4
			c-3.8,0-6.4-2.3-6.4-5.8c0-1.8,0.7-3.3,2-4.2s3-1.5,4.8-1.5c2,0,3.6,0.3,5,1.1v-0.5c0-2.2-1.5-3.3-4.6-3.3c-1.8,0-3.6,0.5-5.3,1.5
			v-4.2c1.8-0.9,3.9-1.4,6.4-1.4s4.5,0.6,6,1.8s2.3,2.9,2.3,5v5.9c0,0.9,0.4,1.3,1.2,1.3C140.8,64.4,141.2,64.3,141.4,64.2z
			 M134.3,61.3c-1-0.7-2.2-1-3.6-1c-2.1,0-3.4,0.8-3.4,2.3s1.3,2.3,3.1,2.3c1.7,0,3-0.6,3.9-1.8L134.3,61.3L134.3,61.3z"/>
		<path class="st0" d="M44.1,99.7v-8.5h2.2c1.3-2,2-5.3,2.1-9.9l0.1-3.4h14.6v13.2H66v8.5h-4.6v-4.4H48.8v4.4h-4.7V99.7z M58.3,91.2
			v-9.1h-5.4c0,3.6-0.5,6.7-1.5,9.1H58.3z"/>
		<path class="st0" d="M70.5,80.1c1.8-1.8,4.1-2.6,6.9-2.6s5.1,0.9,6.9,2.6c1.8,1.8,2.7,3.9,2.7,6.5s-0.9,4.8-2.7,6.5
			c-1.8,1.7-4.1,2.6-6.9,2.6s-5.1-0.9-6.9-2.6c-1.8-1.8-2.7-3.9-2.7-6.5S68.7,81.9,70.5,80.1z M77.4,91.4c1.4,0,2.5-0.5,3.4-1.4
			s1.4-2.1,1.4-3.5s-0.5-2.5-1.4-3.4c-0.9-0.9-2-1.3-3.4-1.3s-2.5,0.5-3.4,1.4s-1.4,2-1.4,3.4s0.5,2.5,1.4,3.5
			C74.9,91,76,91.4,77.4,91.4z"/>
		<path class="st0" d="M92.7,93.2c-1.8-1.7-2.8-3.9-2.8-6.7c0-2.7,0.9-4.9,2.8-6.6s4.1-2.5,6.7-2.5c1.9,0,3.6,0.4,5.2,1.1v4.3
			c-1.5-0.7-3-1-4.4-1c-1.5,0-2.8,0.5-3.9,1.4c-1,0.9-1.5,2-1.5,3.5s0.5,2.6,1.6,3.5c1,0.9,2.3,1.4,3.8,1.4c1.8,0,3.3-0.4,4.7-1.2
			v4.2c-1.6,0.9-3.4,1.3-5.5,1.3C96.7,95.7,94.5,94.9,92.7,93.2z"/>
		<path class="st0" d="M112.8,95.3V82h-5.4v-4.1h15.9V82h-5.5v13.2L112.8,95.3L112.8,95.3z"/>
		<path class="st0" d="M126.1,101.7v-4.3c0.8,0.5,1.7,0.7,2.6,0.7c1.8,0,2.9-1.1,3.9-3.5l-7.5-16.7h5.3l4.6,11.4l4.4-11.4h5.2
			l-8,19.1c-1.5,3.6-3.8,5.3-6.9,5.3C128.2,102.4,127,102.2,126.1,101.7z"/>
		<path class="st0" d="M146.5,95.3V77.9h16.8v17.3h-4.9V82h-6.9v13.2L146.5,95.3L146.5,95.3z"/>
		<path class="st0" d="M184.9,91.3v3.5c-0.6,0.5-1.5,0.7-2.6,0.7c-2,0-3.3-0.7-3.9-2.2c-1.5,1.6-3.5,2.4-6,2.4
			c-3.8,0-6.4-2.3-6.4-5.8c0-1.8,0.7-3.3,2-4.2s3-1.5,4.8-1.5c2,0,3.6,0.3,5,1.1v-0.5c0-2.2-1.5-3.3-4.6-3.3c-1.8,0-3.6,0.5-5.3,1.5
			v-4.1c1.8-0.9,3.9-1.4,6.4-1.4s4.5,0.6,6,1.8c1.5,1.2,2.3,2.9,2.3,5v5.9c0,0.9,0.4,1.3,1.2,1.3C184.3,91.5,184.6,91.4,184.9,91.3z
			 M177.8,88.4c-1-0.7-2.2-1-3.6-1c-2.1,0-3.4,0.8-3.4,2.3s1.3,2.3,3.1,2.3c1.7,0,3-0.6,3.9-1.8V88.4z"/>
	</g>
	<path class="st0" d="M16.5,95.3C13.8,91.6,0,72.7,0,63.2c0-10.7,8.8-19.5,19.6-19.5s19.6,8.7,19.6,19.5c0,9.4-13.8,28.4-16.5,32.1
		l-3,4L16.5,95.3z"/>
</g>
</svg>
