<?xml version="1.0" encoding="utf-8"?>
<!-- Generator: Adobe Illustrator 19.2.1, SVG Export Plug-In . SVG Version: 6.00 Build 0)  -->
<svg version="1.1" id="Слой_1" xmlns="http://www.w3.org/2000/svg" xmlns:xlink="http://www.w3.org/1999/xlink" x="0px" y="0px"
	 viewBox="0 0 25 25" style="enable-background:new 0 0 25 25;" xml:space="preserve">
<style type="text/css">
	.st0{fill-rule:evenodd;clip-rule:evenodd;fill:#B3B3B3;}
</style>
<path class="st0" d="M21.1,0H3.9C1.7,0,0,1.7,0,3.9v17.3C0,23.3,1.7,25,3.9,25h17.3c2.1,0,3.9-1.7,3.9-3.9V3.9C25,1.7,23.3,0,21.1,0
	z M19.2,14.5c1.4,1.3,1.7,1.9,1.7,2c0.6,0.9-0.6,1-0.6,1l-2.3,0c0,0-0.5,0.1-1.1-0.3c-0.9-0.6-1.7-2.1-2.3-1.9
	c-0.6,0.2-0.6,1.6-0.6,1.6s0,0.3-0.1,0.4c-0.2,0.2-0.5,0.2-0.5,0.2h-1c0,0-2.3,0.1-4.2-1.9C5.9,13.3,4,8.8,4,8.8S3.9,8.5,4,8.4
	c0.1-0.2,0.5-0.2,0.5-0.2l2.4,0c0,0,0.2,0,0.4,0.2c0.1,0.1,0.2,0.3,0.2,0.3s0.4,1,0.9,1.9c1,1.8,1.5,2.2,1.8,2
	c0.5-0.3,0.4-2.5,0.4-2.5s0-0.8-0.3-1.2c-0.2-0.3-0.6-0.4-0.8-0.4C9.5,8.5,9.7,8.1,10,8c0.4-0.2,1.2-0.2,2.1-0.2
	c0.7,0,0.9,0.1,1.2,0.1c0.8,0.2,0.6,1,0.6,2.9c0,0.6-0.1,1.5,0.3,1.7c0.2,0.1,0.6,0,1.8-1.9c0.5-0.9,1-2,1-2s0.1-0.2,0.2-0.3
	c0.1-0.1,0.3-0.1,0.3-0.1l2.6,0c0,0,0.8-0.1,0.9,0.3c0.1,0.4-0.3,1.2-1.3,2.6C17.9,13.4,17.7,13.2,19.2,14.5z"/>
</svg>
